<svg version="1.2" xmlns="http://www.w3.org/2000/svg" viewBox="0 0 24 24" width="24" height="24">
	<title>icon_1-svg</title>
	<defs>
		<linearGradient id="g1" x1="12" y1="22" x2="12" y2="2" gradientUnits="userSpaceOnUse">
			<stop offset="0" stop-color="#32134f"/>
			<stop offset="1" stop-color="#a13cff"/>
		</linearGradient>
		<linearGradient id="g2" x1="12" y1="17.5" x2="12" y2="6.5" gradientUnits="userSpaceOnUse">
			<stop offset="0" stop-color="#a13cff"/>
			<stop offset="1" stop-color="#3e1a60"/>
		</linearGradient>
		<linearGradient id="g3" x1="12" y1="17.7" x2="12" y2="6.3" gradientUnits="userSpaceOnUse">
			<stop offset="0" stop-color="#9d34ff"/>
			<stop offset="1" stop-color="#3a1958"/>
		</linearGradient>
	</defs>
	<style>
		.s0 { fill: url(#g1) } 
		.s1 { fill: url(#g2) } 
		.s2 { fill: url(#g3) } 
	</style>
	<path id="Layer" class="s0" d="m12 22q-0.1 0-0.2 0q-0.1 0-0.2-0.1q-0.1 0-0.2-0.1q0 0-0.1-0.1q-0.2-0.1-0.2-0.3q-0.1-0.2-0.1-0.4q0-0.2 0.1-0.4q0-0.2 0.2-0.3q0.7-0.8 1.2-1.7q0.4-1 0.4-2.1q0-1.1-0.4-2.1q-0.5-0.9-1.2-1.7q-1-1-1.6-2.4q-0.6-1.3-0.6-2.8q0-1.5 0.6-2.8q0.6-1.4 1.6-2.4q0.3-0.3 0.7-0.3q0.4 0 0.7 0.3q0.3 0.3 0.3 0.7q0 0.4-0.3 0.7q-0.7 0.8-1.2 1.7q-0.4 1-0.4 2.1q0 1.1 0.4 2.1q0.5 0.9 1.2 1.7q1 1 1.6 2.4q0.6 1.3 0.6 2.8q0 1.5-0.6 2.8q-0.6 1.4-1.6 2.4q-0.1 0.1-0.1 0.1q-0.1 0.1-0.2 0.1q-0.1 0.1-0.2 0.1q-0.1 0-0.2 0z"/>
	<path id="Layer" class="s1" d="m19.8 17.5q-0.2 0-0.3 0q-0.2-0.1-0.3-0.2q-0.2-0.1-0.3-0.2q-0.1-0.2-0.1-0.3q-0.3-1.1-0.9-1.9q-0.7-0.8-1.6-1.4q-0.9-0.5-2-0.6q-1-0.2-2 0.1q-1.5 0.4-2.9 0.2q-1.4-0.2-2.7-0.9q-1.3-0.8-2.2-1.9q-0.9-1.2-1.2-2.6c-0.1-0.3-0.1-0.5 0-0.8c0.2-0.2 0.4-0.4 0.7-0.5c0.2 0 0.5 0 0.7 0.1c0.3 0.2 0.4 0.4 0.5 0.7q0.3 1 0.9 1.8q0.7 0.9 1.6 1.4q0.9 0.5 2 0.6q1 0.2 2-0.1q1.5-0.4 2.9-0.2q1.4 0.2 2.7 0.9q1.3 0.8 2.2 1.9q0.9 1.2 1.2 2.6q0.1 0.2 0.1 0.4q-0.1 0.2-0.2 0.4q-0.1 0.1-0.2 0.3q-0.2 0.1-0.4 0.1q0 0.1 0 0.1q-0.1 0-0.1 0q0 0 0 0q-0.1 0-0.1 0z"/>
	<path id="Layer" class="s2" d="m5.8 17.7q-0.2 0-0.4 0q-0.3 0-0.5 0q-0.2-0.1-0.4-0.1q-0.3-0.1-0.5-0.1q-0.4-0.1-0.6-0.5q-0.2-0.4-0.1-0.8q0.1-0.4 0.5-0.6q0.3-0.2 0.7-0.1q1 0.3 2.1 0.1q1-0.1 1.9-0.6q0.9-0.6 1.6-1.4q0.6-0.8 0.9-1.9q0.4-1.4 1.3-2.5q0.9-1.2 2.1-1.9q1.3-0.7 2.7-0.9q1.5-0.2 2.9 0.1q0.4 0.1 0.6 0.5q0.2 0.4 0.1 0.8q-0.1 0.4-0.5 0.6q-0.3 0.2-0.7 0.1q-1-0.3-2.1-0.1q-1 0.1-1.9 0.6q-0.9 0.6-1.6 1.4q-0.6 0.8-0.9 1.9q-0.3 1.1-1 2.1q-0.7 1.1-1.7 1.8q-0.9 0.7-2.1 1.1q-1.1 0.4-2.4 0.4z"/>
</svg>