<svg version="1.2" xmlns="http://www.w3.org/2000/svg" viewBox="0 0 24 24" width="24" height="24">
	<title>electrical-engineering-board-chipset-svgrepo-com-svg</title>
	<defs>
		<linearGradient id="g1" x1="11" y1="13.4" x2="4" y2="11.6" gradientUnits="userSpaceOnUse">
			<stop offset="0" stop-color="#a13cff"/>
			<stop offset="1" stop-color="#32134f"/>
		</linearGradient>
		<linearGradient id="g2" x1="6" y1="9.2" x2="4" y2="8.8" gradientUnits="userSpaceOnUse">
			<stop offset="0" stop-color="#a13cff"/>
			<stop offset="1" stop-color="#32134f"/>
		</linearGradient>
		<linearGradient id="g3" x1="21" y1="14.7" x2="19" y2="14.3" gradientUnits="userSpaceOnUse">
			<stop offset="0" stop-color="#a13cff"/>
			<stop offset="1" stop-color="#32134f"/>
		</linearGradient>
		<linearGradient id="g4" x1="21" y1="12.4" x2="14" y2="10.6" gradientUnits="userSpaceOnUse">
			<stop offset="0" stop-color="#a13cff"/>
			<stop offset="1" stop-color="#32134f"/>
		</linearGradient>
		<linearGradient id="g5" x1="22" y1="10.5" x2="18" y2="9.5" gradientUnits="userSpaceOnUse">
			<stop offset="0" stop-color="#32134f"/>
			<stop offset="1" stop-color="#a13cff"/>
		</linearGradient>
		<linearGradient id="g6" x1="22" y1="4.5" x2="18" y2="3.5" gradientUnits="userSpaceOnUse">
			<stop offset="0" stop-color="#32134f"/>
			<stop offset="1" stop-color="#a13cff"/>
		</linearGradient>
		<linearGradient id="g7" x1="7" y1="4.5" x2="3" y2="3.5" gradientUnits="userSpaceOnUse">
			<stop offset="0" stop-color="#32134f"/>
			<stop offset="1" stop-color="#a13cff"/>
		</linearGradient>
	</defs>
	<style>
		.s0 { fill: url(#g1) } 
		.s1 { fill: url(#g2) } 
		.s2 { fill: url(#g3) } 
		.s3 { fill: url(#g4) } 
		.s4 { fill: #a13cff } 
		.s5 { fill: url(#g5) } 
		.s6 { fill: url(#g6) } 
		.s7 { fill: url(#g7) } 
	</style>
	<path id="Layer" class="s0" d="m10 21h-5q-0.4 0-0.7-0.3q-0.3-0.3-0.3-0.7q0-0.4 0.3-0.7q0.3-0.3 0.7-0.3h4v-14q0-0.4 0.3-0.7q0.3-0.3 0.7-0.3q0.4 0 0.7 0.3q0.3 0.3 0.3 0.7v15q0 0.2-0.1 0.4q-0.1 0.2-0.2 0.3q-0.1 0.1-0.3 0.2q-0.2 0.1-0.4 0.1z"/>
	<path id="Layer" class="s1" d="m5 14q-0.2 0-0.4-0.1q-0.2-0.1-0.3-0.2q-0.1-0.1-0.2-0.3q-0.1-0.2-0.1-0.4v-8q0-0.4 0.3-0.7q0.3-0.3 0.7-0.3q0.4 0 0.7 0.3q0.3 0.3 0.3 0.7v8q0 0.2-0.1 0.4q-0.1 0.2-0.2 0.3q-0.1 0.1-0.3 0.2q-0.2 0.1-0.4 0.1z"/>
	<path id="Layer" class="s2" d="m20 20q-0.2 0-0.4-0.1q-0.2-0.1-0.3-0.2q-0.1-0.1-0.2-0.3q-0.1-0.2-0.1-0.4v-9q0-0.4 0.3-0.7q0.3-0.3 0.7-0.3q0.4 0 0.7 0.3q0.3 0.3 0.3 0.7v9q0 0.2-0.1 0.4q-0.1 0.2-0.2 0.3q-0.1 0.1-0.3 0.2q-0.2 0.1-0.4 0.1z"/>
	<path id="Layer" class="s3" d="m15 20q-0.2 0-0.4-0.1q-0.2-0.1-0.3-0.2q-0.1-0.1-0.2-0.3q-0.1-0.2-0.1-0.4v-15q0-0.2 0.1-0.4q0.1-0.2 0.2-0.3q0.1-0.1 0.3-0.2q0.2-0.1 0.4-0.1h5q0.4 0 0.7 0.3q0.3 0.3 0.3 0.7q0 0.4-0.3 0.7q-0.3 0.3-0.7 0.3h-4v14q0 0.2-0.1 0.4q-0.1 0.2-0.2 0.3q-0.1 0.1-0.3 0.2q-0.2 0.1-0.4 0.1z"/>
	<circle id="Layer" class="s4" cx="5" cy="20" r="2"/>
	<circle id="Layer" class="s4" cx="10" cy="4" r="2"/>
	<circle id="Layer" class="s4" cx="15" cy="20" r="2"/>
	<circle id="Layer" class="s4" cx="20" cy="20" r="2"/>
	<circle id="Layer" class="s5" cx="20" cy="10" r="2"/>
	<circle id="Layer" class="s6" cx="20" cy="4" r="2"/>
	<circle id="Layer" class="s4" cx="5" cy="14" r="2"/>
	<circle id="Layer" class="s7" cx="5" cy="4" r="2"/>
</svg>