<svg version="1.2" xmlns="http://www.w3.org/2000/svg" viewBox="0 0 24 24" width="24" height="24">
	<title>planets-orbit-orbits-solar-svgrepo-com-svg</title>
	<defs>
		<linearGradient id="g1" x1="22" y1="14.5" x2="2" y2="9.5" gradientUnits="userSpaceOnUse">
			<stop offset="0" stop-color="#32134f"/>
			<stop offset="1" stop-color="#a13cff"/>
		</linearGradient>
		<linearGradient id="g2" x1="14" y1="12.5" x2="10" y2="11.5" gradientUnits="userSpaceOnUse">
			<stop offset="0" stop-color="#32134f"/>
			<stop offset="1" stop-color="#a13cff"/>
		</linearGradient>
		<linearGradient id="g3" x1="20" y1="5.5" x2="16" y2="4.5" gradientUnits="userSpaceOnUse">
			<stop offset="0" stop-color="#32134f"/>
			<stop offset="1" stop-color="#a13cff"/>
		</linearGradient>
		<linearGradient id="g4" x1="17" y1="16.5" x2="13" y2="15.5" gradientUnits="userSpaceOnUse">
			<stop offset="0" stop-color="#32134f"/>
			<stop offset="1" stop-color="#a13cff"/>
		</linearGradient>
	</defs>
	<style>
		.s0 { fill: url(#g1) } 
		.s1 { fill: #32134f } 
		.s2 { fill: url(#g2) } 
		.s3 { fill: url(#g3) } 
		.s4 { fill: url(#g4) } 
	</style>
	<path id="Layer" class="s0" d="m12 22c-2 0-3.9-0.6-5.6-1.7c-1.6-1.1-2.9-2.7-3.6-4.5c-0.8-1.9-1-3.9-0.6-5.8c0.4-2 1.4-3.7 2.8-5.1c0.2-0.2 0.4-0.4 0.7-0.4c0.3 0 0.6 0.1 0.8 0.3c0.2 0.2 0.3 0.5 0.2 0.8c0 0.3-0.1 0.5-0.3 0.7c-2.9 2.9-3.2 7.4-0.7 10.6c2.5 3.2 7.1 4 10.5 1.9c3.5-2.1 4.8-6.6 3-10.2c-1.7-3.7-6-5.5-9.8-4.2q-0.4 0.2-0.8 0q-0.3-0.2-0.4-0.6q-0.2-0.4 0-0.7q0.2-0.4 0.5-0.6q0.4-0.1 0.8-0.2q0.4-0.1 0.8-0.2q0.5 0 0.9-0.1q0.4 0 0.8 0c2.7 0 5.2 1.1 7.1 2.9c1.8 1.9 2.9 4.4 2.9 7.1c0 2.7-1.1 5.2-2.9 7.1c-1.9 1.8-4.4 2.9-7.1 2.9z"/>
	<path id="Layer" class="s1" d="m12 18q-1.2 0-2.3-0.5q-1.1-0.4-1.9-1.3q-0.9-0.8-1.3-1.9q-0.5-1.1-0.5-2.3q0-0.1 0-0.3q0-0.1 0-0.2q0-0.1 0.1-0.3q0-0.1 0-0.2q0.1-0.4 0.4-0.6q0.4-0.3 0.8-0.2q0.4 0.1 0.6 0.4q0.2 0.3 0.2 0.7q0 0.1 0 0.2q-0.1 0.1-0.1 0.2q0 0.1 0 0.1q0 0.1 0 0.2c0 1.8 1.3 3.4 3 3.9c1.8 0.4 3.7-0.4 4.5-2c0.9-1.7 0.5-3.7-0.8-4.9c-1.4-1.2-3.4-1.3-5-0.3q-0.3 0.2-0.7 0.1q-0.4 0-0.6-0.4q-0.3-0.3-0.2-0.7q0.1-0.4 0.4-0.7q0.4-0.2 0.8-0.4q0.4-0.2 0.8-0.3q0.5-0.2 0.9-0.2q0.4-0.1 0.9-0.1c1.6 0 3.1 0.6 4.2 1.8c1.2 1.1 1.8 2.6 1.8 4.2c0 1.6-0.6 3.1-1.8 4.2c-1.1 1.2-2.6 1.8-4.2 1.8z"/>
	<path id="Layer" class="s2" d="m12.8 10.2q0.3 0.1 0.6 0.4q0.3 0.3 0.4 0.6q0.2 0.4 0.2 0.8c0 0.8-0.5 1.5-1.2 1.8c-0.8 0.4-1.6 0.2-2.2-0.4c-0.6-0.6-0.8-1.4-0.4-2.2c0.3-0.7 1-1.2 1.8-1.2q0.4 0 0.8 0.2z"/>
	<path id="Layer" class="s3" d="m18.8 3.2q0.3 0.1 0.6 0.4q0.3 0.3 0.4 0.6q0.2 0.4 0.2 0.8c0 0.8-0.5 1.5-1.2 1.8c-0.8 0.4-1.6 0.2-2.2-0.4c-0.6-0.6-0.8-1.4-0.4-2.2c0.3-0.7 1-1.2 1.8-1.2q0.4 0 0.8 0.2z"/>
	<path id="Layer" class="s4" d="m15.8 14.2q0.3 0.1 0.6 0.4q0.3 0.3 0.4 0.6q0.2 0.4 0.2 0.8c0 0.8-0.5 1.5-1.2 1.8c-0.8 0.4-1.6 0.2-2.2-0.4c-0.6-0.6-0.8-1.4-0.4-2.2c0.3-0.7 1-1.2 1.8-1.2q0.4 0 0.8 0.2z"/>
</svg>